<svg width="96" height="72" viewBox="0 0 96 72" fill="none" xmlns="http://www.w3.org/2000/svg"><g clip-path="url(#clip0_622_18013)"><path d="M11.4 35.6 22 24.2h-5.6L5 36V24.2h-5v23.6h5v-5.6l3-3 7 8.6h6l-9-11.3-.7-1Z" fill="#0052FE"/><path d="M38.4 34.7a9.2 9.2 0 0 0-8-4.1 9.1 9.1 0 0 0-8.3 4.6c-.7 1.2-1 2.6-1 4.1 0 5 4 8.7 9.3 8.7 5.4 0 9.3-3.6 9.3-8.7 0-1.8-.4-3.3-1.3-4.6Zm-8 9.3c-2.4 0-4.3-1.8-4.3-4.7 0-2.5 1.4-4.2 3.3-4.6a4.7 4.7 0 0 1 1.7 0c2.1.3 3.6 2 3.6 4.6 0 3-1.8 4.7-4.3 4.7Z" fill="#0052FE"/><path d="M48 30.8h-5v17h5v-17Z" fill="#0052FE"/><path d="M62.8 30.6c-2.3 0-4.3.8-5.6 2.2v-2h-4.7v17h5v-8.4c0-1.2.2-2.2.7-3 .7-1 1.9-1.6 3.3-1.6 2 0 3.1 1 3.4 3.2v9.8h2.7l2.3-3.1V38c0-5.2-3-7.5-7-7.5Z" fill="#0052FE"/><path d="M95.4 24 71.3 47.9h7.5l2.2-3.2 12.5-17.8 2-2.7Z" fill="url(#paint0_linear_622_18013)"/><path d="m88.3 24-.7 1.2L75.4 42l-4.1 5.8L95.4 24h-7Z" fill="url(#paint1_linear_622_18013)"/><path d="m93 43.6-.3-.4c-.2-.4-.6-.6-1-.6h-5.8c-.2 0-.3.1-.4.3L96 47.8l-3-4.2Z" fill="#F69300"/><path d="M85.5 42.9v.5l1.2 1.7 1.7 2.7H96l-10.5-5Z" fill="url(#paint2_linear_622_18013)"/><path d="m82 28.5-1.7-2.7-1.2-1.7h-7.4l10.2 5c.2 0 .3-.4.2-.6Z" fill="url(#paint3_linear_622_18013)"/><path d="m71.7 24 3.1 4.7c.3.4.7.6 1.2.6h5.6l.3-.1L71.7 24Z" fill="#F69300"/><path fill-rule="evenodd" clip-rule="evenodd" d="m44 29.5-1-.7.5-.4c0-.8.3-1.6 1-2.3.6-.8 1.5-1.2 2.2-1.2l.5-.4.7 1c.5.7.3 2-.7 3.1-1 1.2-2.4 1.5-3.2 1Z" fill="url(#paint4_linear_622_18013)"/><path d="M46.6 28c1-1.3 1.3-2.9.5-3.6-.9-.7-2.4-.3-3.5.9s-1.3 2.8-.5 3.5c.8.8 2.4.4 3.5-.9Z" fill="url(#paint5_linear_622_18013)"/><path d="M46.6 28c1-1.3 1.3-2.9.5-3.6-.9-.7-2.4-.4-3.5.9-1.1 1.2-1.3 2.8-.5 3.5.9.8 2.4.4 3.5-.8Z" fill="#0052FE"/></g><defs><linearGradient id="paint0_linear_622_18013" x1="90" y1="30.4" x2="80.7" y2="41.3" gradientUnits="userSpaceOnUse"><stop stop-color="#FFAC00"/><stop offset="1" stop-color="#FE7801"/></linearGradient><linearGradient id="paint1_linear_622_18013" x1="71.3" y1="35.9" x2="95.4" y2="35.9" gradientUnits="userSpaceOnUse"><stop stop-color="#FFCE00"/><stop offset="1" stop-color="#FFB003"/></linearGradient><linearGradient id="paint2_linear_622_18013" x1="85.4" y1="45.3" x2="96" y2="45.3" gradientUnits="userSpaceOnUse"><stop stop-color="#FE8B01"/><stop offset="1" stop-color="#FE7801"/></linearGradient><linearGradient id="paint3_linear_622_18013" x1="71.7" y1="26.6" x2="82.2" y2="26.6" gradientUnits="userSpaceOnUse"><stop stop-color="#FFCE00"/><stop offset="1" stop-color="#FFC101"/></linearGradient><linearGradient id="paint4_linear_622_18013" x1="48" y1="25.7" x2="44.4" y2="29.9" gradientUnits="userSpaceOnUse"><stop stop-color="#3372F5"/><stop offset=".2" stop-color="#3372F5"/><stop offset=".5" stop-color="#80DBFB"/><stop offset=".8" stop-color="#3372F5"/><stop offset="1" stop-color="#3372F5"/></linearGradient><linearGradient id="paint5_linear_622_18013" x1="53.3" y1="25.7" x2="52.4" y2="26.8" gradientUnits="userSpaceOnUse"><stop stop-color="#0080D4"/><stop offset=".5" stop-color="white"/><stop offset=".6" stop-color="#F1F8FC"/><stop offset="1" stop-color="#007DCC"/></linearGradient><clipPath id="clip0_622_18013"><rect width="96" height="24" fill="white" transform="translate(0 24)"/></clipPath></defs></svg>