<svg width="136" height="34" viewBox="0 0 136 34" fill="none" xmlns="http://www.w3.org/2000/svg">
<path fill-rule="evenodd" clip-rule="evenodd" d="M52.1797 9.93193L51.0416 9.07837L51.5357 8.55523C51.5033 7.71464 51.8898 6.71422 52.6258 5.8846C53.4328 4.97494 54.4941 4.4582 55.3875 4.47681L55.8784 3.95703L56.732 5.09511L56.7162 5.11187C57.3785 5.9902 57.1154 7.57414 55.9774 8.85725C54.771 10.2163 53.113 10.64 52.1832 9.92816L52.1797 9.93193Z" fill="#B9B9B9"/>
<path d="M55.1991 8.05892C56.4922 6.6014 56.7454 4.71444 55.7647 3.84429C54.7839 2.97413 52.9405 3.45028 51.6474 4.9078C50.3543 6.36532 50.101 8.25228 51.0818 9.12243C52.0626 9.99259 53.9059 9.51644 55.1991 8.05892Z" fill="url(#paint0_linear_8761_123030)"/>
<path d="M55.2169 8.07166C56.5021 6.62307 56.7409 4.73626 55.7503 3.85734C54.7596 2.97842 52.9147 3.44023 51.6295 4.88882C50.3443 6.33741 50.1055 8.22422 51.0961 9.10314C52.0868 9.98205 53.9317 9.52025 55.2169 8.07166Z" fill="white"/>
<path d="M13.5044 17.0947L26.1052 3.59375H19.4042L6.02155 17.6513V3.59375H0V31.5472H6.02155V24.9566L9.53935 21.3056L17.919 31.5472H24.9899L14.3568 18.1679L13.5044 17.0936V17.0947Z" fill="white"/>
<path d="M45.5241 16.0165C43.6509 13.045 40.2139 11.207 36.0235 11.207C31.5452 11.207 27.909 13.3079 26.1359 16.6368C25.37 18.0628 24.9523 19.7187 24.9523 21.5271C24.9523 27.5612 29.6252 31.8472 36.0235 31.8472C42.4218 31.8472 47.0594 27.5612 47.0594 21.5271C47.0594 19.4478 46.5074 17.5746 45.5241 16.0165ZM36.0235 27.0775C33.1055 27.0775 30.86 24.9914 30.86 21.5271C30.86 18.5476 32.5171 16.5879 34.8376 16.0985C35.2166 16.0154 35.6138 15.9744 36.0235 15.9744C36.3114 15.9744 36.588 15.9926 36.86 16.037C39.3512 16.3967 41.1482 18.4008 41.1482 21.5271C41.1482 24.9914 38.9427 27.0775 36.0246 27.0775H36.0235Z" fill="white"/>
<path d="M56.7842 11.5039H50.9493V31.5465H56.7842V11.5039Z" fill="white"/>
<path d="M74.4426 11.207C71.7112 11.207 69.3543 12.1403 67.7837 13.8519V11.5052H62.2106V31.5479H68.0443V21.6375C68.0443 20.1808 68.3584 19.0324 68.9172 18.18C69.764 16.8655 71.1752 16.2385 72.8721 16.2385C75.1653 16.2385 76.6015 17.4141 76.8929 19.9463C76.9304 20.2627 76.9486 20.6064 76.9486 20.9683V31.5467H80.1626L82.787 27.9026V20.076C82.787 13.9634 79.1941 11.207 74.4426 11.207Z" fill="white"/>
<path d="M113.118 3.49609L84.4919 31.5462H93.4018L96.0171 27.8281L110.829 6.75326L113.118 3.49609Z" fill="white"/>
<path d="M104.68 3.49609L103.765 4.76846L89.3992 24.7257L84.4919 31.5462L113.118 3.49609H104.68Z" fill="white"/>
<path d="M110.284 26.6497L109.914 26.1262C109.606 25.6892 109.104 25.4297 108.571 25.4297H101.837C101.588 25.4297 101.395 25.5776 101.302 25.7745L113.749 31.548L110.284 26.6497Z" fill="white"/>
<path d="M101.302 25.7734C101.22 25.9487 101.219 26.1627 101.341 26.3493L102.724 28.4536H102.727L104.761 31.5469H113.751L101.304 25.7734H101.302Z" fill="white"/>
<path d="M97.2553 8.69076L95.1237 5.56105L93.7193 3.5H84.9243L97.1176 9.49879C97.3566 9.32012 97.4465 8.97187 97.2565 8.69076H97.2553Z" fill="white"/>
<path d="M84.9232 3.49723L88.6754 8.9065C88.6914 8.92812 88.7062 8.94633 88.7221 8.96796C89.0328 9.37425 89.5142 9.61438 90.0286 9.61438H96.766C96.9037 9.61438 97.0209 9.56659 97.1177 9.49489L84.9243 3.49609L84.9232 3.49723Z" fill="white"/>
<path d="M125.491 4.57032H123.122V10.7842H121.521V4.57032H119.184V3.38672H125.491V4.57032ZM128.483 3.38672L130.472 8.72935L132.453 3.38672H134.548V10.7842H132.931V8.72935L133.108 5.22787L131.014 10.7842H129.922L127.836 5.23609L127.998 8.72935V10.7842H126.405V3.38672H128.483Z" fill="white"/>
<defs>
<linearGradient id="paint0_linear_8761_123030" x1="63.193" y1="5.36351" x2="62.0513" y2="6.64873" gradientUnits="userSpaceOnUse">
<stop stop-color="#0080D4"/>
<stop offset="0.47" stop-color="white"/>
<stop offset="0.6" stop-color="#F1F8FC"/>
<stop offset="1" stop-color="#007DCC"/>
</linearGradient>
</defs>
</svg>
